<?xml version="1.0" encoding="utf-8" ?>
<svg baseProfile="full" height="200mm" version="1.1" viewBox="0,0,200,200" width="200mm" xmlns="http://www.w3.org/2000/svg" xmlns:ev="http://www.w3.org/2001/xml-events" xmlns:xlink="http://www.w3.org/1999/xlink"><defs /><rect fill="#1a1a1a" height="200" width="200" x="0" y="0" /><text alignment-baseline="middle" fill="#e1ed5e" style="dominant-baseline: central; font-size:9.0px; font-family:Arial;" text-anchor="middle" x="100.0" y="100.0">2025</text><line stroke="#e1ed5e" stroke-width="0.3" x1="100.0" x2="100.0" y1="15.0" y2="10.0" /><path d="M 100.0 14.0 a86.0,86.0 0 0,1 42.46469731375804,11.215312516191453" fill="none" id="id49" stroke="none" /><text fill="#e1ed5e" style="font-size:6.75px; font-family:Arial;" text-anchor="middle"><textPath startOffset="22.20632615414155" xlink:href="#id49">January</textPath></text><path d="M 100.36148047927253 79.00311137660856 l 0.16953631945172704 -9.84765546485806 a30.849114717484106,30.849114717484106 0 0,0 0.5308594469865122,0.013710533327736736 l -0.33902240163310704 9.843278139387962" fill="#ff5107" stroke="none" /><path d="M 101.44485096284872 79.0497635885617 l 4.334552888546152 -62.8507092343149 a84.0,84.0 0 0,0 1.4416392425506352,0.11189895124614191 l -5.415782320459128 62.76678502088029" fill="#4dd2ff" stroke="none" /><path d="M 102.52436894288641 79.15227682838746 l 1.1697619481885373 -9.66058204021336 a30.731145275409403,30.731145275409403 0 0,0 0.5246029979676172,0.06810852534305104 l -1.3358796746640007 9.639015191706171" fill="#ff5007" stroke="none" /><path d="M 103.95276090670814 79.375362276772 l 2.497364860008825 -13.030701000151677 a34.26785588553632,34.26785588553632 0 0,0 0.5783656762558923,0.11601471367514217 l -2.7212969457318428 12.985782330399326" fill="#ff830c" stroke="none" /><path d="M 105.01212808612495 79.60689891045804 l 2.8250814291578386 -11.494552848817042 a32.83663086674669,32.83663086674669 0 0,0 0.5477323770548718,0.13962917868139768 l -3.0225226948977353 11.444220673966775" fill="#ff6e0a" stroke="none" /><path d="M 106.0581310904928 79.89281104454417 l 4.253593072580783 -14.117852250543262 a35.74472129934224,35.74472129934224 0 0,0 0.5876000305196039,0.18257018977282582 l -4.495978475811105 14.042541925887916" fill="#ff980e" stroke="none" /><path d="M 109.08828744355905 81.06846463323043 l 6.385026822383685 -13.300455323009894 a35.753666639921796,35.753666639921796 0 0,0 0.5525281968754863,0.2711231866031879 l -6.613026286269602 13.188576976271873" fill="#ff980e" stroke="none" /><line stroke="#e1ed5e" stroke-width="0.3" x1="143.23703022742887" x2="145.7803849466894" y1="26.81831364943548" y2="22.513508569990506" /><path d="M 143.74570117128098 25.957352633546492 a86.0,86.0 0 0,1 28.547481713284135,27.462654790039103" fill="none" id="id50" stroke="none" /><text fill="#e1ed5e" style="font-size:6.75px; font-family:Arial;" text-anchor="middle"><textPath startOffset="19.985693538727396" xlink:href="#id50">February</textPath></text><path d="M 112.19680574252982 82.90503203632743 l 7.088998917551325 -9.935897311824647 a33.205570902017165,33.205570902017165 0 0,0 0.4624345111162509,0.33597833874332206 l -7.2589787450213645 9.81239973826465" fill="#ff740a" stroke="none" /><path d="M 114.42810811169701 84.74124197986012 l 10.0392657635519 -10.617242801342975 a35.61207383549284,35.61207383549284 0 0,0 0.44178771256465066,0.424999429459248 l -10.220536719728969 10.442860285121427" fill="#ff960d" stroke="none" /><path d="M 114.94478906791727 85.2469230424477 l 9.357406707427282 -9.2373696711552 a34.14876643376796,34.14876643376796 0 0,0 0.4093554696111968,0.4218767947959926 l -9.515026440741588 9.074928680809093" fill="#ff810b" stroke="none" /><path d="M 115.4437574822437 85.77008943001954 l 10.965997227568652 -10.104092869780365 a35.911263793394234,35.911263793394234 0 0,0 0.414956977761058,0.4582058590032355 l -11.138297845945747 9.91383422350758" fill="#ff9a0e" stroke="none" /><path d="M 116.38621287248628 86.86637796730983 l 18.052277758265035 -14.468980401462245 a44.13517076054225,44.13517076054225 0 0,0 0.4700309925182794,0.5968916281035935 l -18.29866283137728 14.156096379405614" fill="#f6ff19" stroke="none" /><line stroke="#e1ed5e" stroke-width="0.3" x1="172.23445277983987" x2="176.4835382374775" y1="55.19839476539836" y2="52.563006222186495" /><path d="M 173.08426987136738 54.67131705675599 a86.0,86.0 0 0,1 12.851231095245387,41.99856678651699" fill="none" id="id51" stroke="none" /><text fill="#e1ed5e" style="font-size:6.75px; font-family:Arial;" text-anchor="middle"><textPath startOffset="22.20632615414155" xlink:href="#id51">March</textPath></text><path d="M 118.03404312379186 89.2402003453031 l 36.931230442158686 -22.034584137975518 a64.00510062894111,64.00510062894111 0 0,0 0.5563577097317318,0.9509956719328699 l -37.30504782636074 21.395609053688755" fill="#33ff50" stroke="none" /><path d="M 119.04729006885535 91.15688171328212 l 20.65616955031599 -9.590075544794894 a43.77382026464323,43.77382026464323 0 0,0 0.3114146345333613,0.6861608676201839 l -20.818186501812697 9.233092668332647" fill="#fbff18" stroke="none" /><path d="M 119.34039704204932 91.81776055985345 l 13.598968394423206 -5.7532436019920326 a35.76589832473404,35.76589832473404 0 0,0 0.2349961103736467,0.5690617209940594 l -13.69598619168305 5.51830731054467" fill="#ff980e" stroke="none" /><path d="M 119.61058180528143 92.48833698450437 l 10.75558204896076 -4.119832276753191 a32.5176196846616,32.5176196846616 0 0,0 0.19571799623764063,0.5244269250511615 l -10.824904633700024 3.934082214672696" fill="#ff6a09" stroke="none" /><path d="M 120.18372546131832 94.20196356495316 l 14.19394180933655 -4.077393537936716 a35.76797623745516,35.76797623745516 0 0,0 0.16489587094541044,0.5932181820516742 l -14.262024450848322 3.83246405246609" fill="#ff980e" stroke="none" /><path d="M 120.67395015179393 96.31383870115 l 31.28813990944984 -5.578669272219858 a52.78158664765052,52.78158664765052 0 0,0 0.1517800839838413,0.8958146474505552 l -31.379531854953903 5.0392688364534655" fill="#8dff24" stroke="none" /><line stroke="#e1ed5e" stroke-width="0.3" x1="184.98032266829074" x2="189.97916517819016" y1="98.17113171792111" y2="98.06355123074" /><path d="M 185.9800911702706 98.14961562048488 a86.0,86.0 0 0,1 -9.607161424134198,41.387399972396054" fill="none" id="id52" stroke="none" /><text fill="#e1ed5e" style="font-size:6.75px; font-family:Arial;" text-anchor="middle"><textPath startOffset="21.466115282336823" xlink:href="#id52">April</textPath></text><path d="M 120.9764740272857 100.99374915477107 l 12.412026950835472 0.5880130891084968 a33.42594754621268,33.42594754621268 0 0,0 -0.03217430356909496,0.5744938037007958 l -12.400066296378847 -0.8015786091447159" fill="#ff770a" stroke="none" /><path d="M 120.64145759157962 103.86396538481128 l 11.527984465814061 2.157974199976975 a32.728225717976976,32.728225717976976 0 0,0 -0.10842404079939293,0.5528518481368659 l -11.489130492039003 -2.3560897751817858" fill="#ff6d0a" stroke="none" /><path d="M 119.12269723197855 108.67885076344098 l 13.606245618408742 6.175204979735715 a35.94199037512138,35.94199037512138 0 0,0 -0.26053729792342595,0.5611741612409388 l -13.497933703645487 -6.408499208255484" fill="#ff9a0e" stroke="none" /><line stroke="#e1ed5e" stroke-width="0.3" x1="174.80103733775053" x2="179.2010983576182" y1="140.37084112569926" y2="142.7455964860345" /><path d="M 175.68104954172406 140.8457921977663 a86.0,86.0 0 0,1 -30.038265399797805,32.042727171017184" fill="none" id="id53" stroke="none" /><text fill="#e1ed5e" style="font-size:6.75px; font-family:Arial;" text-anchor="middle"><textPath startOffset="22.206326154141568" xlink:href="#id53">May</textPath></text><path d="M 116.27256486870786 113.27417163493432 l 9.152637568098159 7.466166702762096 a32.811622229245025,32.811622229245025 0 0,0 -0.3607778487006956,0.4345801599476226 l -9.02276371950392 -7.622608119823489" fill="#ff6e0a" stroke="none" /><path d="M 115.80600337817218 113.82643327865902 l 7.442007753887362 6.509958349780245 a30.887519260400616,30.887519260400616 0 0,0 -0.3535019957406567,0.39716323966355493 l -7.328846908498367 -6.637095759184666" fill="#ff5207" stroke="none" /><path d="M 115.07121518719521 114.62390073753431 l 8.648815961844699 8.392118654816809 a33.05112746005053,33.05112746005053 0 0,0 -0.3996973176649646,0.4048912725597471 l -8.5030780191242 -8.53975042135722" fill="#ff710a" stroke="none" /><line stroke="#e1ed5e" stroke-width="0.3" x1="143.8653032363475" x2="146.44561519142675" y1="172.8068346515853" y2="177.08958963109032" /><path d="M 144.38136562736335 173.6633856474863 a86.0,86.0 0 0,1 -40.68145358897372,12.25698825130547" fill="none" id="id54" stroke="none" /><text fill="#e1ed5e" style="font-size:6.75px; font-family:Arial;" text-anchor="middle"><textPath startOffset="21.466115282336833" xlink:href="#id54">June</textPath></text><path d="M 110.8373102113329 117.98757091392108 l 4.958336687278054 8.229757295702711 a30.608017893956042,30.608017893956042 0 0,0 -0.45362850346368166,0.2680117156951952 l -4.81594031278599 -8.313887583691656" fill="#ff4e07" stroke="none" /><path d="M 106.57524785965236 119.94407469862006 l 2.463358335807457 7.471870826388864 a28.86746388214354,28.86746388214354 0 0,0 -0.4732596017133447,0.1515227794229723 l -2.334377389003172 -7.513166452471543" fill="#ff3404" stroke="none" /><path d="M 103.7750983002368 120.6578951692458 l 0.799411138171015 4.3744957550981844 a25.446939540763278,25.446939540763278 0 0,0 -0.4315692233491144,0.07503384136447983 l -0.7239929433498505 -4.38760817498367" fill="#ff0000" stroke="none" /><line stroke="#e1ed5e" stroke-width="0.3" x1="102.19456741930631" x2="102.32365962044197" y1="184.97166512339345" y2="189.96999836594603" /><path d="M 102.22038585953345 185.97133177190398 a86.0,86.0 0 0,1 -42.740103519485714,-10.115201625700543" fill="none" id="id55" stroke="none" /><text fill="#e1ed5e" style="font-size:6.75px; font-family:Arial;" text-anchor="middle"><textPath startOffset="22.20632615414155" xlink:href="#id55">July</textPath></text><path d="M 99.09653310690486 120.98055641714683 l -0.5126619847856996 11.905177463531267 a32.91621050287453,32.91621050287453 0 0,0 -0.5658640349595684,-0.029248707078079916 l 0.717514088158757 -11.894588949690986" fill="#ff700a" stroke="none" /><path d="M 98.37488393609728 120.93702456842531 l -0.6864298769118596 8.843552480116946 a29.87015256038473,29.87015256038473 0 0,0 -0.5122811987880761,-0.04420177739830248 l 0.8385553934414774 -8.83042645043998" fill="#ff4306" stroke="none" /><line stroke="#e1ed5e" stroke-width="0.3" x1="58.666819895761336" x2="56.23545636021788" y1="174.27360380694188" y2="178.64263932499728" /><path d="M 58.180547188652646 175.14741091055294 a86.0,86.0 0 0,1 -31.652253787137756,-30.449443065178592" fill="none" id="id56" stroke="none" /><text fill="#e1ed5e" style="font-size:6.75px; font-family:Arial;" text-anchor="middle"><textPath startOffset="22.20632615414155" xlink:href="#id56">August</textPath></text><line stroke="#e1ed5e" stroke-width="0.3" x1="26.63291911575756" x2="22.317208475507996" y1="142.92168965132927" y2="145.44649492493687" /><path d="M 25.769776987707644 143.4266507060508 a86.0,86.0 0 0,1 -11.730757126820373,-40.83630448921669" fill="none" id="id57" stroke="none" /><text fill="#e1ed5e" style="font-size:6.75px; font-family:Arial;" text-anchor="middle"><textPath startOffset="21.46611528233685" xlink:href="#id57">September</textPath></text><line stroke="#e1ed5e" stroke-width="0.3" x1="15.007084014347285" x2="10.007500721073583" y1="101.09737516637583" y2="101.16192664675087" /><path d="M 14.007167355692545 101.11028546245083 a86.0,86.0 0 0,1 10.666146001902534,-42.60595125391555" fill="none" id="id58" stroke="none" /><text fill="#e1ed5e" style="font-size:6.75px; font-family:Arial;" text-anchor="middle"><textPath startOffset="22.20632615414155" xlink:href="#id58">October</textPath></text><line stroke="#e1ed5e" stroke-width="0.3" x1="26.266209847984243" x2="21.928928074336255" y1="57.711370442889674" y2="55.22380399835377" /><path d="M 25.398753493254645 57.213857153982495 a86.0,86.0 0 0,1 29.58750427330803,-30.492523968695096" fill="none" id="id59" stroke="none" /><text fill="#e1ed5e" style="font-size:6.75px; font-family:Arial;" text-anchor="middle"><textPath startOffset="21.46611528233685" xlink:href="#id59">November</textPath></text><line stroke="#e1ed5e" stroke-width="0.3" x1="56.762969772571076" x2="54.21961505331055" y1="26.818313649435495" y2="22.513508569990535" /><path d="M 56.25429882871897 25.957352633546506 a86.0,86.0 0 0,1 42.265352541879196,-11.944610805530505" fill="none" id="id60" stroke="none" /><text fill="#e1ed5e" style="font-size:6.75px; font-family:Arial;" text-anchor="middle"><textPath startOffset="22.20632615414155" xlink:href="#id60">December</textPath></text></svg>